<svg width="4103" height="2689" viewBox="0 0 4103 2689" fill="none" xmlns="http://www.w3.org/2000/svg">
<path d="M3414.5 1708L3432 1633.5C3439.83 1629.17 3457.5 1617.5 3465.5 1605.5C3475.5 1590.5 3522 1392 3660.5 1503C3697 1526.83 3750.1 1596.6 3670.5 1685L3640.5 1708H3414.5Z" fill="black"/>
<path d="M1 1709.5H2260.5L2210 1323.5H3432V1452.5C3520.67 1423.33 3706.3 1388.9 3739.5 1484.5C3772.7 1580.1 3762.67 1536.67 3753.5 1503C3770.5 1547.17 3787 1652.1 3717 1718.5H4102.5V10L10 1L1 1709.5Z" fill="black"/>
<path d="M3414.5 1708L3432 1633.5C3439.83 1629.17 3457.5 1617.5 3465.5 1605.5C3475.5 1590.5 3522 1392 3660.5 1503C3697 1526.83 3750.1 1596.6 3670.5 1685L3640.5 1708H3414.5Z" stroke="black"/>
<path d="M1 1709.5H2260.5L2210 1323.5H3432V1452.5C3520.67 1423.33 3706.3 1388.9 3739.5 1484.5C3772.7 1580.1 3762.67 1536.67 3753.5 1503C3770.5 1547.17 3787 1652.1 3717 1718.5H4102.5V10L10 1L1 1709.5Z" stroke="black"/>
</svg>
